<svg preserveAspectRatio="none" width="100%" height="100%" overflow="visible" style="display: block;" viewBox="0 0 40 40" fill="none" xmlns="http://www.w3.org/2000/svg">
<path id="COMISS&#195;&#149;ES" d="M20 0C8.96842 0 0 8.96842 0 20C0 31.0316 8.96842 40 20 40C31.0316 40 40 31.0316 40 20C40 8.96842 31.0316 0 20 0ZM9.93684 13.8105C9.93684 11.6632 11.6632 9.93684 13.8105 9.93684C15.9579 9.93684 17.6842 11.6632 17.6842 13.8105C17.6842 15.9579 15.9579 17.6842 13.8105 17.6842C11.6632 17.6842 9.93684 15.9158 9.93684 13.8105ZM15.1579 30.7368C14.7789 31.2842 14.1474 31.6211 13.5579 31.6211C13.1789 31.6211 12.8 31.5368 12.5053 31.2842C11.6211 30.6947 11.3684 29.4737 11.9579 28.5895L24.8421 9.22105C25.4316 8.33684 26.6526 8.08421 27.5368 8.67368C28.4211 9.26316 28.6737 10.4842 28.0842 11.3684L15.1579 30.7368ZM26.1895 30.0632C24.0421 30.0632 22.3158 28.3368 22.3158 26.1895C22.3158 24.0421 24.0421 22.3158 26.1895 22.3158C28.3368 22.3158 30.0632 24.0421 30.0632 26.1895C30.0632 28.3368 28.3368 30.0632 26.1895 30.0632Z" fill="var(--fill-0, #0569FF)"/>
</svg>
