<svg preserveAspectRatio="none" width="100%" height="100%" overflow="visible" style="display: block;" viewBox="0 0 40.1075 42.9999" fill="none" xmlns="http://www.w3.org/2000/svg">
<path id="PLANTA" d="M22.8009 17.3065C21.486 19.6733 20.9601 22.303 20.9601 24.6697M22.8009 17.3065C27.0084 17.8325 31.216 16.2546 34.3716 13.099C37.2643 10.2063 38.8422 5.99872 38.5792 1.5282C34.3716 1.26522 29.9011 2.84306 27.0084 5.99872C23.8528 8.89141 22.2749 13.099 22.8009 17.3065ZM20.9601 24.6697C24.1157 31.244 23.3268 36.7664 18.0674 41.4999M20.9601 24.6697C16.7525 26.2476 12.282 25.7216 8.60039 23.6178C4.91879 21.5141 2.28907 17.8325 1.50015 13.6249C5.7077 12.0471 10.1782 12.573 13.8598 14.6768C17.5414 16.7806 20.1712 20.4622 20.9601 24.6697ZM18.0674 41.4999C28.5863 41.4999 33.8457 41.4999 33.8457 41.4999M18.0674 41.4999C14.6487 41.4999 11.4931 41.4999 8.07445 41.4999" stroke="var(--stroke-0, #36AE5C)" stroke-width="3" stroke-miterlimit="22.9256" stroke-linecap="round" stroke-linejoin="round"/>
</svg>
